<svg width="100" height="100" viewBox="0 0 100 100" fill="none" xmlns="http://www.w3.org/2000/svg">
<path d="M26.4927 23.8776C28.926 25.8526 29.8343 25.7026 34.401 25.3984L77.451 22.8151C78.3676 22.8151 77.6051 21.8984 77.301 21.7484L70.151 16.5817C68.7801 15.5192 66.9551 14.2984 63.4593 14.6026L21.7718 17.6442C20.2552 17.7942 19.951 18.5567 20.5552 19.1651L26.4927 23.8776ZM29.076 33.9109V79.2025C29.076 81.64 30.2927 82.5484 33.0343 82.3984L80.3426 79.6609C83.0801 79.5109 83.3843 77.8359 83.3843 75.8567V30.8692C83.3843 28.8942 82.626 27.8276 80.951 27.9817L31.5093 30.8692C29.6843 31.0192 29.076 31.9317 29.076 33.9109ZM18.2718 13.5401L61.6301 10.3484C66.951 9.89007 68.3218 10.1984 71.6718 12.6276L85.5093 22.3567C87.7926 24.0276 88.5551 24.4817 88.5551 26.3067V79.6609C88.5551 83.0067 87.3385 84.9817 83.0801 85.2859L32.726 88.3275C29.5302 88.4775 28.0093 88.0234 26.3343 85.8942L16.1427 72.6692C14.3177 70.2359 13.5593 68.415 13.5593 66.2817V18.8567C13.5593 16.1234 14.7718 13.8442 18.2718 13.5401Z" fill="white"/>
<path d="M55.1719 70.3281C53.1094 70.3281 51.1719 69.9219 49.3594 69.1094C47.5469 68.2969 45.9531 67.1875 44.5781 65.7812C43.2031 64.3438 42.125 62.7031 41.3438 60.8594C40.5625 58.9844 40.1719 57 40.1719 54.9062C40.1719 52.6875 40.5625 50.6094 41.3438 48.6719C42.125 46.7031 43.2031 44.9844 44.5781 43.5156C45.9844 42.0156 47.625 40.8438 49.5 40C51.4062 39.1562 53.4531 38.7344 55.6406 38.7344C57.3594 38.7344 59.1094 38.8594 60.8906 39.1094C62.6719 39.3281 64.5 39.6562 66.375 40.0938C66.5625 40.1562 66.7656 41.2031 66.9844 43.2344C67.1094 44.3906 67.2031 45.2969 67.2656 45.9531C67.3594 46.6094 67.3281 47.0781 67.1719 47.3594C67.0156 47.6094 66.6406 47.7344 66.0469 47.7344L65.2969 47.5938C65.1406 47.0312 64.8906 46.4375 64.5469 45.8125C64.2031 45.1875 63.6719 44.5156 62.9531 43.7969C62.2656 43.0781 61.2969 42.5 60.0469 42.0625C58.7969 41.5938 57.4062 41.3594 55.875 41.3594C50.2812 41.3594 47.4844 45.5469 47.4844 53.9219C47.4844 56.5156 47.8594 58.875 48.6094 61C49.3906 63.0938 50.5156 64.75 51.9844 65.9688C53.4844 67.1875 55.2812 67.7969 57.375 67.7969C59.6875 67.7969 61.6875 66.9531 63.375 65.2656C63.875 64.7656 64.25 64.2031 64.5 63.5781C64.7812 62.9219 64.9844 62.3438 65.1094 61.8438C65.2656 61.3438 65.4062 61.0938 65.5312 61.0938C66.8125 61.0938 67.5156 61.25 67.6406 61.5625C67.6406 61.7812 67.5625 62.25 67.4062 62.9688C67.2812 63.6562 67.1094 64.4219 66.8906 65.2656C66.7031 66.0781 66.5 66.7969 66.2812 67.4219C66.0625 68.0156 65.875 68.3438 65.7188 68.4062C62.1562 69.6875 58.6406 70.3281 55.1719 70.3281Z" fill="white"/>
<path d="M44.5781 65.7812L44.2168 66.1269L44.2206 66.1308L44.5781 65.7812ZM41.3438 60.8594L40.8822 61.0517L40.8834 61.0545L41.3438 60.8594ZM41.3438 48.6719L41.8075 48.8589L41.8085 48.8563L41.3438 48.6719ZM44.5781 43.5156L44.2134 43.1737L44.2131 43.1739L44.5781 43.5156ZM49.5 40L49.2976 39.5428L49.2948 39.544L49.5 40ZM60.8906 39.1094L60.8211 39.6046L60.8297 39.6056L60.8906 39.1094ZM66.375 40.0938L66.5331 39.6194L66.5112 39.6121L66.4886 39.6068L66.375 40.0938ZM66.9844 43.2344L66.4872 43.2879L66.4873 43.2881L66.9844 43.2344ZM67.2656 45.9531L66.7679 46.0005L66.769 46.0122L66.7707 46.0238L67.2656 45.9531ZM67.1719 47.3594L67.5959 47.6244L67.6027 47.6135L67.609 47.6022L67.1719 47.3594ZM66.0469 47.7344L65.9547 48.2258L66.0004 48.2344H66.0469V47.7344ZM65.2969 47.5938L64.8151 47.7276L64.8985 48.0278L65.2047 48.0852L65.2969 47.5938ZM62.9531 43.7969L62.5917 44.1426L62.5996 44.1504L62.9531 43.7969ZM60.0469 42.0625L59.8713 42.5308L59.8817 42.5344L60.0469 42.0625ZM48.6094 61L48.1378 61.1664L48.1409 61.1748L48.6094 61ZM51.9844 65.9688L51.6651 66.3535L51.6691 66.3568L51.9844 65.9688ZM64.5 63.5781L64.0403 63.3811L64.0358 63.3924L64.5 63.5781ZM65.1094 61.8438L64.6321 61.6946L64.6278 61.7084L64.6243 61.7225L65.1094 61.8438ZM67.6406 61.5625H68.1406V61.4662L68.1049 61.3768L67.6406 61.5625ZM67.4062 62.9688L66.9177 62.8625L66.9158 62.8709L66.9143 62.8793L67.4062 62.9688ZM66.8906 65.2656L66.4065 65.1401L66.4034 65.1532L66.8906 65.2656ZM66.2812 67.4219L66.7505 67.5947L66.7532 67.5871L66.2812 67.4219ZM65.7188 68.4062L65.888 68.8767L65.8963 68.8738L65.9044 68.8705L65.7188 68.4062ZM55.1719 69.8281C53.1771 69.8281 51.3096 69.4357 49.5639 68.6531L49.1548 69.5656C51.0342 70.4081 53.0416 70.8281 55.1719 70.8281V69.8281ZM49.5639 68.6531C47.8081 67.866 46.2663 66.7926 44.9356 65.4317L44.2206 66.1308C45.6399 67.5824 47.2857 68.7277 49.1548 69.5656L49.5639 68.6531ZM44.9394 65.4356C43.6066 64.0422 42.5619 62.4527 41.8041 60.6643L40.8834 61.0545C41.6881 62.9536 42.7997 64.6453 44.2168 66.1269L44.9394 65.4356ZM41.8053 60.6671C41.0502 58.8549 40.6719 56.9361 40.6719 54.9062H39.6719C39.6719 57.0639 40.0748 59.1139 40.8822 61.0517L41.8053 60.6671ZM40.6719 54.9062C40.6719 52.7476 41.0516 50.7333 41.8075 48.8589L40.88 48.4849C40.0734 50.4854 39.6719 52.6274 39.6719 54.9062H40.6719ZM41.8085 48.8563C42.5679 46.9426 43.6132 45.278 44.9431 43.8573L44.2131 43.1739C42.7931 44.6908 41.6821 46.4636 40.879 48.4875L41.8085 48.8563ZM44.9429 43.8576C46.304 42.4058 47.8904 41.2726 49.7052 40.456L49.2948 39.544C47.3596 40.4149 45.6648 41.6255 44.2134 43.1737L44.9429 43.8576ZM49.7024 40.4572C51.5418 39.6431 53.5193 39.2344 55.6406 39.2344V38.2344C53.3869 38.2344 51.2707 38.6694 49.2976 39.5428L49.7024 40.4572ZM55.6406 39.2344C57.3351 39.2344 59.0618 39.3576 60.8211 39.6045L60.9601 38.6142C59.1569 38.3611 57.3837 38.2344 55.6406 38.2344V39.2344ZM60.8297 39.6056C62.592 39.8221 64.4025 40.1469 66.2614 40.5807L66.4886 39.6068C64.5975 39.1656 62.7518 38.8342 60.9516 38.6131L60.8297 39.6056ZM66.2169 40.5681C66.1364 40.5413 66.0852 40.4984 66.0605 40.4742C66.0353 40.4496 66.0232 40.4301 66.0211 40.4269C66.018 40.4218 66.0281 40.4378 66.0469 40.4913C66.0836 40.5954 66.1279 40.7674 66.1771 41.021C66.2746 41.5233 66.3783 42.2761 66.4872 43.2879L67.4815 43.1808C67.3717 42.1614 67.2645 41.3751 67.1588 40.8305C67.1065 40.5608 67.0512 40.3324 66.9902 40.1591C66.9602 40.0739 66.9219 39.982 66.8709 39.8998C66.8309 39.8353 66.7282 39.6844 66.5331 39.6194L66.2169 40.5681ZM66.4873 43.2881C66.6122 44.4436 66.7057 45.3474 66.7679 46.0005L67.7634 45.9057C67.7006 45.2463 67.6066 44.3377 67.4815 43.1806L66.4873 43.2881ZM66.7707 46.0238C66.8625 46.6666 66.8053 46.9896 66.7348 47.1166L67.609 47.6022C67.8509 47.1667 67.8563 46.5522 67.7606 45.8824L66.7707 46.0238ZM66.7479 47.0944C66.7475 47.095 66.743 47.1025 66.7253 47.115C66.7064 47.1283 66.6723 47.1473 66.6153 47.1663C66.4976 47.2055 66.3142 47.2344 66.0469 47.2344V48.2344C66.3733 48.2344 66.6743 48.2007 66.9316 48.115C67.1916 48.0283 67.4379 47.8771 67.5959 47.6244L66.7479 47.0944ZM66.139 47.2429L65.389 47.1023L65.2047 48.0852L65.9547 48.2258L66.139 47.2429ZM65.7786 47.4599C65.61 46.853 65.3434 46.2233 64.985 45.5715L64.1088 46.0535C64.4378 46.6517 64.6712 47.2095 64.8151 47.7276L65.7786 47.4599ZM64.985 45.5715C64.6111 44.8918 64.0459 44.1825 63.3067 43.4433L62.5996 44.1504C63.2979 44.8487 63.7951 45.4832 64.1088 46.0535L64.985 45.5715ZM63.3144 43.4513C62.5574 42.6598 61.5128 42.0459 60.212 41.5906L59.8817 42.5344C61.0809 42.9541 61.9738 43.4964 62.5918 44.1425L63.3144 43.4513ZM60.2224 41.5943C58.9087 41.1017 57.4575 40.8594 55.875 40.8594V41.8594C57.355 41.8594 58.6851 42.0858 59.8713 42.5307L60.2224 41.5943ZM55.875 40.8594C52.9329 40.8594 50.6689 41.9725 49.1662 44.2223C47.6874 46.4364 46.9844 49.6945 46.9844 53.9219H47.9844C47.9844 49.7743 48.6798 46.7511 49.9978 44.7777C51.292 42.84 53.2234 41.8594 55.875 41.8594V40.8594ZM46.9844 53.9219C46.9844 56.5639 47.3664 58.9806 48.1379 61.1664L49.0809 60.8336C48.3523 58.7694 47.9844 56.4674 47.9844 53.9219H46.9844ZM48.1409 61.1748C48.9474 63.3363 50.1184 65.0701 51.6651 66.3535L52.3037 65.584C50.9128 64.4299 49.8338 62.8512 49.0778 60.8252L48.1409 61.1748ZM51.6691 66.3568C53.2658 67.6542 55.1767 68.2969 57.375 68.2969V67.2969C55.3858 67.2969 53.7029 66.7208 52.2997 65.5807L51.6691 66.3568ZM57.375 68.2969C59.8248 68.2969 61.9506 67.3971 63.7286 65.6192L63.0214 64.9121C61.4244 66.5092 59.5502 67.2969 57.375 67.2969V68.2969ZM63.7286 65.6192C64.274 65.0738 64.6878 64.4548 64.9642 63.7638L64.0358 63.3924C63.8122 63.9514 63.476 64.4575 63.0214 64.9121L63.7286 65.6192ZM64.9596 63.7751C65.2476 63.1029 65.461 62.4986 65.5944 61.965L64.6243 61.7225C64.5077 62.1889 64.3149 62.7408 64.0404 63.3812L64.9596 63.7751ZM65.5866 61.9929C65.6614 61.7537 65.7233 61.6056 65.7678 61.5264C65.7906 61.4858 65.7958 61.4873 65.7773 61.5047C65.7599 61.5211 65.6754 61.5938 65.5312 61.5938V60.5938C65.3246 60.5938 65.1757 60.6977 65.0919 60.7765C65.007 60.8565 64.9437 60.9517 64.8962 61.0361C64.8002 61.2069 64.7136 61.4338 64.6321 61.6946L65.5866 61.9929ZM65.5312 61.5938C66.1589 61.5938 66.6124 61.6327 66.9111 61.699C67.0607 61.7323 67.1478 61.7674 67.1922 61.7925C67.2369 61.8179 67.2017 61.8116 67.1764 61.7482L68.1049 61.3768C68.017 61.1572 67.8471 61.0142 67.6848 60.9223C67.5221 60.8302 67.33 60.7677 67.128 60.7228C66.7235 60.633 66.1848 60.5938 65.5312 60.5938V61.5938ZM67.1406 61.5625C67.1406 61.7171 67.0768 62.1303 66.9177 62.8625L67.8948 63.075C68.0482 62.3697 68.1406 61.8454 68.1406 61.5625H67.1406ZM66.9143 62.8793C66.792 63.5522 66.623 64.3055 66.4066 65.1401L67.3746 65.3911C67.5957 64.5382 67.7705 63.7603 67.8982 63.0582L66.9143 62.8793ZM66.4034 65.1532C66.219 65.9522 66.0207 66.6527 65.8093 67.2567L66.7532 67.5871C66.9793 66.941 67.1872 66.2041 67.3778 65.3781L66.4034 65.1532ZM65.8121 67.249C65.7068 67.5347 65.6164 67.7359 65.5424 67.8652C65.5055 67.9298 65.4796 67.9643 65.4664 67.9793C65.4497 67.9983 65.4702 67.9671 65.5331 67.942L65.9044 68.8705C66.0454 68.8141 66.148 68.7185 66.2172 68.6399C66.29 68.5571 66.3539 68.4608 66.4107 68.3614C66.5243 68.1626 66.6369 67.9028 66.7504 67.5947L65.8121 67.249ZM65.5495 67.9358C62.0364 69.1993 58.5779 69.8281 55.1719 69.8281V70.8281C58.7034 70.8281 62.2761 70.1757 65.888 68.8767L65.5495 67.9358Z" fill="white"/>
<g clip-path="url(#clip0_52_217)">
<rect x="33" y="77" width="49" height="21.6667" rx="10.8333" fill="white"/>
</g>
<defs>
<clipPath id="clip0_52_217">
<rect x="33" y="77" width="49" height="21.6667" rx="10.8333" fill="white"/>
</clipPath>
</defs>
</svg>
